<?xml version="1.0" encoding="UTF-8" standalone="no"?>
<!-- Created with Inkscape (http://www.inkscape.org/) -->

<svg
   xmlns:dc="http://purl.org/dc/elements/1.1/"
   xmlns:cc="http://creativecommons.org/ns#"
   xmlns:rdf="http://www.w3.org/1999/02/22-rdf-syntax-ns#"
   xmlns:svg="http://www.w3.org/2000/svg"
   xmlns="http://www.w3.org/2000/svg"
   xmlns:sodipodi="http://sodipodi.sourceforge.net/DTD/sodipodi-0.dtd"
   xmlns:inkscape="http://www.inkscape.org/namespaces/inkscape"
   width="73.763313mm"
   height="105.70827mm"
   viewBox="0 0 73.763313 105.70827"
   version="1.1"
   id="SVGRoot"
   sodipodi:docname="chineseCloudsB5.svg"
   inkscape:version="0.92.3 (2405546, 2018-03-11)">
  <sodipodi:namedview
     id="base"
     pagecolor="#ffffff"
     bordercolor="#666666"
     borderopacity="1.0"
     inkscape:pageopacity="0.0"
     inkscape:pageshadow="2"
     inkscape:zoom="1.4"
     inkscape:cx="221.05778"
     inkscape:cy="204.71649"
     inkscape:document-units="mm"
     inkscape:current-layer="layer1"
     showgrid="false"
     inkscape:window-width="1680"
     inkscape:window-height="987"
     inkscape:window-x="0"
     inkscape:window-y="27"
     inkscape:window-maximized="1" />
  <defs
     id="defs2561" />
  <metadata
     id="metadata2564">
    <rdf:RDF>
      <cc:Work
         rdf:about="">
        <dc:format>image/svg+xml</dc:format>
        <dc:type
           rdf:resource="http://purl.org/dc/dcmitype/StillImage" />
        <dc:title></dc:title>
      </cc:Work>
    </rdf:RDF>
  </metadata>
  <g
     id="layer1"
     inkscape:groupmode="layer"
     inkscape:label="Livello 1"
     style="display:inline"
     transform="translate(-117.58245,-123.6793)">
    <path
       style="fill:#888e69;stroke-width:0.09360709"
       d="m 185.33852,205.02549 c 0.0814,0.0615 0.84319,0.0965 2.0097,0.0923 1.03322,-0.004 1.91074,-0.0144 1.95002,-0.0238 0.0393,-0.009 0.006,-0.14872 -0.075,-0.30966 -0.0805,-0.16096 -0.26208,-0.34294 -0.4034,-0.4044 -0.14132,-0.0615 -0.36904,-0.24946 -0.50607,-0.41777 -0.14797,-0.18176 -0.36838,-0.32789 -0.54285,-0.35989 -0.45595,-0.0837 -1.44079,0.17652 -1.91123,0.5049 -0.23119,0.16139 -0.47253,0.41176 -0.5363,0.55638 -0.0961,0.21795 -0.0935,0.27989 0.0152,0.36197 z"
       id="path3304"
       inkscape:connector-curvature="0" />
    <path
       style="fill:#888e69;stroke-width:0.09360709"
       d="m 181.26127,205.25358 c 0,0.10968 0.10928,0.12412 0.56604,0.0748 0.3113,-0.0336 0.76713,-0.0611 1.01295,-0.0611 0.32643,0 0.44692,-0.0367 0.44692,-0.13625 0,-0.20164 -0.45445,-0.49763 -0.87549,-0.57025 -0.32432,-0.0559 -0.41633,-0.0261 -0.75972,0.24664 -0.21488,0.17065 -0.3907,0.37144 -0.3907,0.4462 z"
       id="path3302"
       inkscape:connector-curvature="0" />
    <path
       style="fill:#888e69;stroke-width:0.09360709"
       d="m 140.74293,205.3764 v -3e-5 c 0.26448,0.0797 1.71823,0.0126 2.53239,-0.11686 0.37265,-0.0593 0.84561,-0.0506 1.45287,0.0266 0.68776,0.0875 1.02038,0.0885 1.4087,0.004 0.33728,-0.0731 0.58639,-0.0795 0.7402,-0.0191 0.1275,0.0501 0.3484,0.0911 0.49085,0.0911 0.14247,0 0.40708,-0.0639 0.58803,-0.14204 0.31988,-0.1381 0.32614,-0.1506 0.22605,-0.45197 -0.0566,-0.17047 -0.20159,-0.4729 -0.32217,-0.67209 -0.13952,-0.2305 -0.35989,-0.42492 -0.60618,-0.5348 -0.21283,-0.0949 -0.46973,-0.2682 -0.57091,-0.38501 -0.10118,-0.1168 -0.29595,-0.27222 -0.43283,-0.34536 -0.13689,-0.0731 -0.39328,-0.13299 -0.56978,-0.13299 -0.17648,0 -0.43754,-0.046 -0.58012,-0.10233 -0.14258,-0.0563 -0.46831,-0.14247 -0.72386,-0.19153 -0.56683,-0.10881 -1.33042,0.0224 -1.69604,0.29138 -0.1419,0.1044 -0.34331,0.37732 -0.44755,0.60647 -0.14143,0.31089 -0.2552,0.43028 -0.44823,0.47035 -0.36719,0.0762 -0.86281,0.44486 -1.11216,0.82718 -0.1173,0.17985 -0.20116,0.41257 -0.18638,0.51717 0.0152,0.10729 0.12724,0.22044 0.25712,0.25958 z"
       id="path3300"
       inkscape:connector-curvature="0" />
    <path
       style="fill:#888e69;stroke-width:0.09360709"
       d="m 155.01643,205.73344 c 0.42952,0.11358 0.42409,0.11315 0.59104,0.047 0.0801,-0.0318 0.14566,-0.13073 0.14566,-0.21994 0,-0.2124 -0.3193,-0.56159 -0.5781,-0.63223 -0.11256,-0.0307 -0.28811,-0.19181 -0.39012,-0.35797 -0.16024,-0.26099 -0.24566,-0.3061 -0.62756,-0.33137 -0.24316,-0.0161 -0.66268,0.0181 -0.93229,0.0759 -0.26962,0.0578 -0.56343,0.18875 -0.65291,0.29093 -0.0895,0.10217 -0.21906,0.18575 -0.28792,0.18575 -0.0689,0 -0.20732,0.13917 -0.30768,0.30926 -0.10037,0.17008 -0.18282,0.33475 -0.18282,0.36592 -2e-4,0.0312 0.65232,0.0848 1.45002,0.11912 0.7977,0.0343 1.59541,0.10079 1.77268,0.14767 z"
       id="path3298"
       inkscape:connector-curvature="0" />
    <path
       style="fill:#888e69;stroke-width:0.09360709"
       d="m 180.06413,207.07914 c 0.0888,0.0662 0.45087,0.0841 1.01296,0.05 0.48116,-0.0292 1.05094,-0.0535 1.2662,-0.0535 0.27595,-2.5e-4 0.39138,-0.0402 0.39138,-0.13521 0,-0.0741 -0.16163,-0.267 -0.35914,-0.42866 -0.27951,-0.22873 -0.48571,-0.30758 -0.92967,-0.35554 -0.5336,-0.0576 -0.58631,-0.0452 -0.81496,0.19143 -0.13444,0.13918 -0.34805,0.33751 -0.47468,0.44076 -0.1971,0.16071 -0.21036,0.20254 -0.0921,0.29074 z"
       id="path3296"
       inkscape:connector-curvature="0" />
    <path
       style="fill:#888e69;stroke-width:0.09360709"
       d="m 186.12322,207.72929 c 0.13327,0.0851 2.68896,0.0738 2.68896,-0.0119 0,-0.0392 -0.0723,-0.13631 -0.16092,-0.21571 -0.0886,-0.0794 -0.30231,-0.27719 -0.47485,-0.43954 -0.29396,-0.27662 -0.34511,-0.29137 -0.81352,-0.23449 -0.2749,0.0334 -0.66213,0.15626 -0.86052,0.27303 -0.36544,0.21513 -0.5493,0.51993 -0.37915,0.6286 z"
       id="path3294"
       inkscape:connector-curvature="0" />
    <path
       style="fill:#888e69;stroke-width:0.09360709"
       d="m 187.34617,209.08283 c 0.62552,0.0877 0.76248,0.0904 1.22795,0.0245 l 0.43203,-0.0612 -0.39616,-0.37103 c -0.36223,-0.33924 -0.42768,-0.36573 -0.76448,-0.30935 -0.43589,0.073 -0.98994,0.39771 -0.94103,0.55158 0.0189,0.0597 0.21771,0.13412 0.44169,0.16552 z"
       id="path3292"
       inkscape:connector-curvature="0" />
    <path
       style="fill:#888e69;stroke-width:0.09360709"
       d="m 155.44682,209.10574 c 0.0192,0.0199 0.50004,0.0383 1.06848,0.0409 0.96817,0.005 1.72419,-0.11207 1.72419,-0.26582 0,-0.037 -0.0851,-0.17906 -0.18913,-0.31568 -0.10401,-0.13665 -0.35001,-0.29824 -0.54666,-0.35913 -0.2589,-0.0801 -0.38889,-0.1889 -0.47117,-0.39414 -0.0625,-0.15591 -0.24125,-0.36388 -0.39724,-0.46217 -0.3484,-0.21952 -1.09441,-0.23708 -1.55861,-0.0367 -0.18183,0.0785 -0.45059,0.14272 -0.59726,0.14272 -0.16038,0 -0.3568,0.0931 -0.49285,0.23371 -0.12441,0.12856 -0.33723,0.27735 -0.47295,0.33067 -0.25737,0.10111 -0.61382,0.60843 -0.61484,0.87402 -2.5e-4,0.13367 0.16447,0.1553 1.25637,0.16467 0.6912,0.006 1.27245,0.0271 1.29167,0.0469 z"
       id="path3290"
       inkscape:connector-curvature="0" />
    <path
       style="fill:#888e69;stroke-width:0.09360709"
       d="m 141.47961,210.25333 c 0,0.13602 0.0486,0.24728 0.10787,0.24728 0.0593,0 0.18689,-0.0739 0.28346,-0.16421 0.11299,-0.10565 0.31263,-0.1602 0.55978,-0.15291 0.63577,0.0187 2.54781,0.12658 3.28557,0.18537 0.61424,0.0489 0.70995,0.0338 0.8585,-0.13582 0.15527,-0.17728 0.1568,-0.21164 0.0214,-0.48217 -0.0802,-0.1602 -0.2386,-0.34232 -0.35202,-0.40471 -0.11344,-0.0624 -0.35129,-0.2307 -0.52856,-0.37404 -0.17726,-0.14335 -0.46733,-0.2823 -0.64461,-0.30878 -0.17726,-0.0265 -0.59165,-0.10093 -0.92087,-0.16547 -0.51281,-0.10053 -0.64723,-0.096 -0.93829,0.0315 -0.2082,0.0912 -0.43148,0.29897 -0.57671,0.5367 -0.14024,0.22956 -0.30768,0.38787 -0.41024,0.38787 -0.0953,0 -0.30198,0.12423 -0.45928,0.27606 -0.17804,0.17185 -0.28601,0.3694 -0.28601,0.52333 z"
       id="path3288"
       inkscape:connector-curvature="0" />
    <path
       style="fill:#888e69;stroke-width:0.09360709"
       d="m 142.95067,212.94307 v 1e-5 c 0.024,0.0234 0.12763,0.0192 0.23022,-0.009 0.10259,-0.0285 0.49731,-0.0533 0.87717,-0.0552 0.51563,-0.003 0.74429,-0.0461 0.90234,-0.17173 0.13765,-0.10946 0.19105,-0.22392 0.15264,-0.3273 -0.0325,-0.0874 -0.13832,-0.18499 -0.2352,-0.21676 -0.0969,-0.0318 -0.28991,-0.15588 -0.42891,-0.27581 -0.25898,-0.22342 -0.52957,-0.30186 -1.38753,-0.40224 -0.57357,-0.0671 -0.88692,0.0667 -1.08552,0.46356 -0.0729,0.14576 -0.20664,0.26503 -0.29709,0.26503 -0.26932,0 -0.75662,0.56149 -0.49845,0.57434 0.78218,0.039 1.7368,0.12274 1.77033,0.15537 z"
       id="path3286"
       inkscape:connector-curvature="0" />
    <path
       style="fill:#888e69;stroke-width:0.09360709"
       d="m 176.42669,220.84338 c 0.94203,0.0651 1.11428,0.0553 1.16765,-0.0663 0.0344,-0.0785 0.0654,-0.3649 0.0691,-0.63643 0.006,-0.49372 0.006,-0.49372 -0.3849,-0.54693 -0.65661,-0.0892 -4.18938,-0.12378 -5.38922,-0.0527 -0.62162,0.0368 -1.14693,0.0842 -1.16739,0.10537 -0.0204,0.0211 -0.0137,0.3063 0.0151,0.63372 l 0.0522,0.59533 2.26622,-0.0542 c 1.24643,-0.0298 2.76351,-0.0198 3.37128,0.0222 z"
       id="path3284"
       inkscape:connector-curvature="0" />
    <path
       style="fill:#888e69;stroke-width:0.09360709"
       d="m 181.85984,221.62154 c 0.52828,0.12118 0.76703,0.14005 0.8439,0.0666 0.059,-0.0563 0.17063,-0.32691 0.24812,-0.60138 0.13017,-0.46094 0.12901,-0.50539 -0.0151,-0.5825 -0.0858,-0.0459 -0.61187,-0.17389 -1.16898,-0.28442 -1.95759,-0.38835 -3.47906,-0.59419 -3.57855,-0.48418 -0.021,0.0232 -0.0672,0.30564 -0.10258,0.62757 -0.0644,0.58534 -0.0644,0.58534 0.19684,0.63808 0.14368,0.029 0.84138,0.14241 1.55046,0.25199 0.70905,0.10955 1.62073,0.27526 2.02591,0.36819 z"
       id="path3282"
       inkscape:connector-curvature="0" />
    <path
       style="fill:#888e69;stroke-width:0.09360709"
       d="m 165.62579,221.56702 c 0.0596,0.16048 0.14791,0.24725 0.22176,0.21798 0.23999,-0.0952 2.49005,-0.51953 3.3784,-0.63718 0.4966,-0.0658 0.95631,-0.1654 1.02156,-0.22139 0.0848,-0.0727 0.10305,-0.26478 0.064,-0.67272 -0.0547,-0.57092 -0.0547,-0.57092 -0.46904,-0.54187 -0.56037,0.0393 -3.09003,0.46075 -3.88082,0.64661 -0.55314,0.12999 -0.63202,0.17443 -0.58902,0.33192 0.0273,0.10001 0.0732,0.27818 0.10188,0.39592 0.0287,0.11776 0.0968,0.33408 0.15128,0.48073 z"
       id="path3280"
       inkscape:connector-curvature="0" />
    <path
       style="fill:#888e69;stroke-width:0.09360709"
       d="m 187.14639,223.39477 c 0.13126,0.0737 0.3108,0.13584 0.39893,0.13787 0.0881,0.002 0.30466,-0.19957 0.48118,-0.44815 0.1765,-0.24859 0.32193,-0.47792 0.32319,-0.50965 10e-4,-0.0317 -0.42246,-0.26168 -0.9416,-0.51103 -1.10205,-0.52931 -3.61636,-1.41977 -3.80157,-1.34633 -0.0701,0.0278 -0.1952,0.29125 -0.27797,0.58545 -0.0828,0.29419 -0.12771,0.55843 -0.0999,0.5872 0.0279,0.0288 0.58074,0.23467 1.22868,0.45756 1.33401,0.45893 2.3378,0.84979 2.68904,1.04708 z"
       id="path3278"
       inkscape:connector-curvature="0" />
    <path
       style="fill:#888e69;stroke-width:0.09360709"
       d="m 160.40671,223.08448 c 0.17651,0.24858 0.36146,0.45197 0.41103,0.45197 0.0496,0 0.4532,-0.15651 0.89696,-0.34781 0.44376,-0.19126 1.39943,-0.55025 2.12371,-0.7977 0.72427,-0.24747 1.33714,-0.47088 1.36191,-0.49649 0.0248,-0.0256 -0.0255,-0.3089 -0.1118,-0.62957 -0.0965,-0.35862 -0.20643,-0.583 -0.28562,-0.583 -0.0708,0 -0.71669,0.19789 -1.43528,0.43973 -0.71858,0.24187 -1.75199,0.65491 -2.29646,0.91791 -0.54446,0.26299 -0.9889,0.504 -0.98764,0.53557 0.001,0.0316 0.14668,0.2608 0.32319,0.50939 z"
       id="path3276"
       inkscape:connector-curvature="0" />
    <path
       style="fill:#888e69;stroke-width:0.09360709"
       d="m 190.92838,225.73886 c 0.17614,0.14935 0.33155,0.27155 0.34534,0.27155 0.0138,0 0.025,-0.37473 0.025,-0.83272 v -0.83271 l -0.89786,-0.58047 c -1.26574,-0.81833 -1.59448,-1.01599 -1.62383,-0.97633 -0.50941,0.68817 -0.6886,0.97807 -0.64729,1.04717 0.0281,0.0469 0.24495,0.1871 0.48194,0.31149 0.48347,0.25376 1.82812,1.1778 2.31665,1.59202 z"
       id="path3274"
       inkscape:connector-curvature="0" />
    <path
       style="fill:#888e69;stroke-width:0.09360709"
       d="m 155.79028,226.3784 0.45155,0.47699 0.79163,-0.69242 c 0.92135,-0.80587 1.71944,-1.39183 2.66172,-1.95422 0.46401,-0.27696 0.648,-0.43629 0.59261,-0.5132 -0.0442,-0.0613 -0.2154,-0.29296 -0.38048,-0.51472 -0.29857,-0.40106 -0.30162,-0.40243 -0.57352,-0.25712 -0.77433,0.41375 -2.77342,1.8712 -3.62671,2.6441 l -0.36835,0.33361 z"
       id="path3272"
       inkscape:connector-curvature="0" />
    <path
       style="fill:#888e69;stroke-width:0.09360709"
       d="m 186.04979,227.00616 v 2.33457 h 2.62449 c 2.62449,0 2.62449,0 2.62449,-0.31164 0,-0.26184 -0.10663,-0.41852 -0.66764,-0.98101 -0.65043,-0.65216 -1.34927,-1.26739 -2.0029,-1.76331 -0.30705,-0.23297 -1.93293,-1.26171 -2.37125,-1.50039 -0.20719,-0.11278 -0.20719,-0.11278 -0.20719,2.22178 z"
       id="path3270"
       inkscape:connector-curvature="0" />
    <path
       style="fill:#888e69;stroke-width:0.09360709"
       d="m 174.99934,225.775 v 3.57667 l 0.39138,-0.0293 0.39136,-0.0293 0.0151,-1.6015 c 0.008,-0.88082 0.0421,-1.62931 0.075,-1.66332 0.0882,-0.0911 1.42716,0.64183 2.53439,1.38727 0.53181,0.35804 1.2848,0.93768 1.67333,1.28806 l 0.70637,0.63707 h 1.84904 1.84901 v -2.70135 -2.70135 l -1.31223,-0.43121 c -0.72174,-0.23716 -1.80951,-0.53905 -2.41728,-0.67088 -1.14808,-0.249 -3.06097,-0.48199 -4.76551,-0.58045 l -0.98994,-0.0572 z"
       id="path3268"
       inkscape:connector-curvature="0" />
    <path
       style="fill:#888e69;stroke-width:0.09360709"
       d="m 163.87838,226.65989 v 0 l -0.0245,2.68086 2.28059,-0.004 2.28059,-0.004 -0.4144,-0.39096 c -0.70555,-0.66567 -1.48939,-1.22901 -2.22425,-1.59858 -0.38766,-0.19498 -0.7917,-0.37793 -0.89787,-0.40664 -0.18256,-0.0493 -0.193,-0.11457 -0.193,-1.20523 0,-1.15309 0,-1.15309 0.25324,-1.25842 0.13928,-0.0579 0.37756,-0.10626 0.52949,-0.10732 0.15195,-0.001 1.18792,0.0286 2.30219,0.0661 1.88149,0.0632 4.38221,0.27775 4.69822,0.40305 0.11504,0.0456 0.13635,0.40213 0.13635,2.27995 v 2.2259 h 0.41439 0.41441 v -3.57256 -3.57257 l -0.94391,0.0574 c -1.56968,0.0954 -2.92267,0.23339 -3.83626,0.39132 -1.14577,0.19806 -3.09687,0.71202 -4.01417,1.05739 l -0.7367,0.27736 z"
       id="path3266"
       inkscape:connector-curvature="0" />
    <path
       style="fill:#888e69;stroke-width:0.09360709"
       d="m 156.76608,229.2413 c 0,0.0669 0.90315,0.0994 2.76262,0.0994 h 2.76262 v -2.28365 c 0,-1.25601 -0.0324,-2.28366 -0.072,-2.28366 -0.15991,0 -2.14534,1.29191 -2.92342,1.90223 -0.45726,0.35868 -1.21354,1.06032 -1.68061,1.55919 -0.46707,0.49887 -0.84921,0.95178 -0.84921,1.00646 z"
       id="path3264"
       inkscape:connector-curvature="0" />
    <path
       style="fill:#888e69;stroke-width:0.09360709"
       d="m 152.62217,229.26932 c 0,0.0393 0.43117,0.0714 0.95816,0.0714 0.95816,0 0.95816,0 1.21244,-0.45197 0.30438,-0.54104 0.63614,-1.0229 0.95163,-1.38218 0.23195,-0.26417 0.23195,-0.26417 -0.25443,-0.76123 l -0.48639,-0.49706 -0.60116,0.66314 c -0.60344,0.66567 -1.78025,2.22432 -1.78025,2.35789 z"
       id="path3262"
       inkscape:connector-curvature="0" />
    <path
       style="fill:#888e69;stroke-width:0.09360709"
       d="m 150.36604,214.3067 c 0.0313,0.0523 0.0441,0.0948 0.0285,0.0937 -0.0156,-7.6e-4 -0.0906,-0.043 -0.1666,-0.0937 -0.083,-0.0554 -0.0944,-0.0926 -0.0284,-0.0937 0.0603,-7.7e-4 0.13527,0.0413 0.16659,0.0937 z"
       id="path3250"
       inkscape:connector-curvature="0" />
    <path
       style="fill:#888e69;stroke-width:0.09360709"
       d="m 150.0372,214.35427 c 0,0.0523 -0.0592,0.2022 -0.1316,0.33303 -0.0724,0.13084 -0.13161,0.19506 -0.13161,0.14274 0,-0.0523 0.0592,-0.2022 0.13161,-0.33304 0.0724,-0.13083 0.1316,-0.19507 0.1316,-0.14273 z"
       id="path3248"
       inkscape:connector-curvature="0" />
    <path
       style="fill:#888e69;stroke-width:0.09360709"
       d="m 150.50415,215.24348 c 0,0.0442 -0.0829,0.15789 -0.18416,0.2526 -0.1013,0.0947 -0.18418,0.14419 -0.18418,0.10991 0,-0.0343 0.0829,-0.14796 0.18418,-0.25263 0.10129,-0.10458 0.18416,-0.15411 0.18416,-0.10988 z"
       id="path3246"
       inkscape:connector-curvature="0" />
    <path
       style="fill:#888e69;stroke-width:0.09360709"
       d="m 149.64829,215.42473 c 0.0219,0.11774 0.0219,0.31044 0,0.42818 -0.022,0.11775 -0.0399,0.0214 -0.0399,-0.21409 0,-0.2355 0.018,-0.33184 0.0399,-0.21409 z"
       id="path3244"
       inkscape:connector-curvature="0" />
    <path
       style="fill:#ffe6d5;stroke-width:0.03787978"
       d="m 150.9688,218.81194 v 10.48042 h 40.26163 v -10.48042 z"
       id="rect545"
       inkscape:connector-curvature="0" />
    <path
       style="fill:#888e69;stroke-width:0.09360709"
       d="m 187.44596,205.31747 c -0.0324,0.002 -0.0759,0.0145 -0.13214,0.0365 -0.11517,0.0453 -0.47331,0.0861 -0.79591,0.0908 -0.35805,0.005 -0.67011,0.065 -0.80106,0.15365 -0.11797,0.0799 -0.24919,0.28415 -0.29153,0.45397 -0.0721,0.28915 -0.10546,0.31069 -0.52687,0.33858 -0.54645,0.0361 -1.66145,-0.31111 -1.94737,-0.60644 -0.23905,-0.24694 -0.46909,-0.3485 -0.53589,-0.23684 -0.027,0.045 -0.14225,0.0653 -0.25617,0.0449 -0.1139,-0.0204 -0.0581,0.0158 0.12391,0.0803 0.18204,0.0645 0.47214,0.22871 0.64462,0.36486 0.1725,0.13618 0.45072,0.32064 0.61827,0.40981 0.16756,0.0892 0.6201,0.24538 1.00557,0.34726 0.38546,0.10186 0.71969,0.20478 0.7427,0.22855 0.10553,0.10903 -0.10397,0.35144 -0.5693,0.65901 -0.27874,0.18425 -0.57517,0.44282 -0.65877,0.57463 -0.15198,0.23967 -0.15196,0.23975 -0.56711,-0.0878 -0.27738,-0.21885 -0.59481,-0.36405 -0.95633,-0.43755 -0.30812,-0.0626 -0.51701,-0.15018 -0.48524,-0.20332 0.0339,-0.0566 -0.0209,-0.0682 -0.13907,-0.0294 -0.10718,0.0352 -0.24684,0.0308 -0.3103,-0.01 -0.0635,-0.0405 -0.27075,-0.0777 -0.46055,-0.0827 -0.20084,-0.005 -0.2973,0.0224 -0.23073,0.0661 0.0629,0.0413 0.18608,0.0755 0.27366,0.0765 0.28372,0.003 1.56189,0.48495 1.83206,0.69135 0.32588,0.24896 0.76146,0.88533 0.68898,1.00652 -0.0296,0.0495 -0.20965,0.1192 -0.40015,0.15496 -0.19047,0.0358 -0.92645,0.22903 -1.63553,0.42953 -4.70544,1.33044 -8.42128,2.68104 -9.31574,3.386 -0.22533,0.17757 -0.52016,0.68793 -1.13949,1.97256 -0.56739,1.17691 -0.95273,1.85511 -1.20069,2.11359 -0.35326,0.36823 -0.38375,0.3801 -0.93885,0.36499 -0.577,-0.0157 -0.85418,-0.0974 -3.15216,-0.92963 -0.7452,-0.26988 -1.35355,-0.4333 -1.6115,-0.43229 -0.41795,0.001 -1.33333,0.14311 -2.7506,0.42638 -1.00089,0.20007 -2.74202,0.72454 -3.55797,1.07171 -0.35422,0.15072 -0.84902,0.41009 -1.09952,0.57634 -0.25049,0.16627 -0.51976,0.30632 -0.59848,0.3111 -0.0787,0.005 0.20809,0.0734 0.63743,0.15221 0.42934,0.0788 0.98882,0.22532 1.24323,0.32555 0.25441,0.10023 0.65841,0.33114 0.89771,0.51312 0.49437,0.37591 1.03965,1.253 0.89271,1.43592 -0.0499,0.0622 -0.22411,0.16918 -0.38703,0.23776 -0.16294,0.0686 -0.53946,0.2708 -0.83666,0.4495 -0.59529,0.35785 -0.64074,0.34194 -0.7499,-0.26221 -0.0936,-0.5178 -0.62142,-1.63215 -0.9643,-2.03565 -0.16847,-0.19827 -0.45536,-0.43753 -0.63743,-0.53178 -0.21693,-0.11229 -0.64904,-0.19203 -1.25364,-0.23132 -0.93996,-0.0611 -2.78735,-0.36552 -3.346,-0.55137 -0.24813,-0.0825 -0.34919,-0.19903 -0.51364,-0.59171 -0.1126,-0.26889 -0.25608,-0.73396 -0.31878,-1.03347 l -0.11401,-0.54452 -0.35657,0.38733 c -0.24052,0.26126 -0.39589,0.36174 -0.47739,0.30887 -0.0901,-0.0585 -0.074,-0.0876 0.0634,-0.11461 0.1013,-0.0199 0.24256,-0.0852 0.31389,-0.14498 0.0713,-0.0598 0.20516,-0.27999 0.29731,-0.48932 0.12213,-0.27742 0.16805,-0.61562 0.16955,-1.24771 9.9e-4,-0.47694 0.0426,-1.0882 0.0922,-1.35824 0.14629,-0.79705 1.01041,-1.95126 1.84363,-2.46254 0.17727,-0.10877 0.60846,-0.26625 0.95813,-0.34987 0.34966,-0.0837 0.82612,-0.25456 1.05891,-0.37985 0.23279,-0.12528 0.63969,-0.25068 0.90414,-0.27864 0.45949,-0.0486 0.91624,-0.21868 0.82908,-0.30874 -0.0226,-0.0234 -0.15318,0.002 -0.29011,0.0553 -0.13694,0.0538 -0.37341,0.0978 -0.52547,0.0978 -0.24193,0 -0.26857,-0.0259 -0.21299,-0.20687 0.0562,-0.18297 0.0226,-0.17198 -0.29101,0.0952 -0.19503,0.16611 -0.4225,0.30204 -0.50542,0.30204 -0.0829,0 -0.25988,-0.0887 -0.39333,-0.19715 -0.13345,-0.10859 -0.24268,-0.15658 -0.24268,-0.10686 0,0.0497 0.0632,0.14463 0.14036,0.21082 0.0772,0.0662 0.11534,0.14618 0.0847,0.17783 -0.0306,0.0316 -0.38343,0.10594 -0.78396,0.16508 -0.40299,0.0595 -0.94464,0.21687 -1.21276,0.35251 -0.26649,0.13481 -0.72904,0.4705 -1.02793,0.74588 -0.54344,0.50071 -0.54342,0.50071 -0.69064,0.26616 -0.33347,-0.53128 -0.8609,-1.02147 -1.56381,-1.45339 -0.40955,-0.25167 -0.80745,-0.55024 -0.88422,-0.66349 -0.0768,-0.11323 -0.13946,-0.29888 -0.13946,-0.4127 0,-0.18124 0.0772,-0.2205 0.62161,-0.31622 1.07048,-0.18823 1.97445,-0.48591 2.78802,-0.91795 0.43184,-0.22931 1.03092,-0.6316 1.33127,-0.89401 0.41656,-0.36394 0.61877,-0.4771 0.85235,-0.4771 0.31835,0 1.00866,-0.25131 0.92574,-0.337 -0.0261,-0.0269 -0.15947,-0.005 -0.29642,0.0488 -0.33828,0.13291 -0.67311,0.12323 -0.72367,-0.021 -0.0331,-0.0945 -0.0811,-0.0949 -0.2342,-0.002 -0.15987,0.0975 -0.2064,0.0917 -0.27469,-0.0344 -0.0659,-0.12169 -0.0933,-0.095 -0.13779,0.13485 -0.0427,0.22085 -0.16749,0.35284 -0.54308,0.5745 -1.05415,0.62209 -2.31885,0.96374 -3.57711,0.96643 l -0.7873,0.002 -0.11698,-0.58475 c -0.0824,-0.41214 -0.19438,-0.66509 -0.37957,-0.85642 -0.24274,-0.25084 -0.31605,-0.27155 -0.96057,-0.27155 -0.57497,0 -0.73015,-0.0335 -0.88191,-0.19031 -0.10129,-0.10467 -0.201,-0.19032 -0.2216,-0.19032 -0.0206,0 -0.0154,0.087 0.0116,0.19334 0.0452,0.17863 0.0183,0.18887 -0.354,0.13446 -0.22158,-0.0324 -0.59968,-0.16015 -0.84026,-0.2839 -0.24056,-0.12376 -0.43742,-0.19836 -0.43742,-0.16574 0,0.0326 0.0685,0.13759 0.15232,0.23329 0.0838,0.0957 0.11328,0.17403 0.0654,0.17403 -0.0479,0 -0.32957,-0.0652 -0.62599,-0.14498 -0.29642,-0.0798 -0.55467,-0.12887 -0.57392,-0.10896 -0.0601,0.0621 0.90749,0.34262 1.53462,0.44491 0.32921,0.0537 0.90939,0.15946 1.28925,0.235 0.37986,0.0755 0.84452,0.13913 1.03268,0.14116 0.25035,0.003 0.36979,0.0571 0.44513,0.20255 0.0607,0.11709 0.10923,0.79243 0.11826,1.64384 0.0144,1.35376 0.0289,1.46294 0.22893,1.72809 0.11744,0.15567 0.37669,0.41744 0.57598,0.58186 0.30597,0.2524 0.33713,0.30907 0.20078,0.36368 -0.28941,0.11591 -2.01701,0.22193 -2.40908,0.14786 -0.2102,-0.0397 -0.45954,-0.14457 -0.55413,-0.23303 -0.12145,-0.11357 -0.18278,-0.12721 -0.20888,-0.0463 -0.0284,0.0881 -0.0882,0.0864 -0.25849,-0.008 -0.16176,-0.0895 -0.2308,-0.0931 -0.25643,-0.0137 -0.0193,0.0598 -0.12632,0.10883 -0.23767,0.10883 -0.11137,0 -0.42167,-0.0588 -0.68962,-0.13064 -0.26793,-0.0718 -0.45309,-0.0954 -0.41145,-0.0525 0.0955,0.0985 1.10654,0.37341 1.37318,0.37341 0.10986,0 0.42361,0.1058 0.6972,0.23526 0.2736,0.12942 0.78627,0.27852 1.13924,0.33122 0.35295,0.0527 1.16177,0.0966 1.79736,0.0976 1.15563,0.002 1.15554,0.002 1.26611,0.31794 0.0608,0.1738 0.11067,0.46731 0.11067,0.65231 0,0.2395 -0.0952,0.46523 -0.33034,0.78348 -0.18169,0.24585 -0.35783,0.43226 -0.3914,0.41427 -1.03038,-0.5518 -1.28879,-0.64363 -1.81253,-0.64363 -0.3049,-4e-5 -0.8534,0.0856 -1.21894,0.19032 -0.75283,0.21557 -1.97568,0.26752 -1.79042,0.0761 0.18142,-0.18745 0.12561,-0.26944 -0.10836,-0.1593 -0.17499,0.0824 -0.27098,0.0677 -0.47906,-0.0732 -0.25347,-0.1715 -0.25841,-0.17143 -0.19435,0.001 0.0589,0.15867 0.0314,0.17035 -0.26428,0.11303 -0.18148,-0.0352 -0.39595,-0.0901 -0.47662,-0.12209 -0.0926,-0.0367 -0.12374,-0.0198 -0.0844,0.0459 0.0342,0.0572 0.2585,0.16588 0.49847,0.24145 1.49713,0.47136 1.51906,0.47491 2.85087,0.4583 1.23246,-0.0154 1.33629,-0.002 1.76613,0.22279 0.25117,0.13151 0.47897,0.27636 0.50618,0.32188 0.0272,0.0455 -0.0574,0.22838 -0.18805,0.40626 -0.13067,0.17791 -0.34001,0.54923 -0.46518,0.82528 l -0.22752,0.50194 -0.48523,-0.28679 c -0.71861,-0.42483 -1.65581,-0.76422 -2.53813,-0.91912 -0.43052,-0.0756 -1.3696,-0.31267 -2.08696,-0.52692 -0.2884,-0.0861 -0.50665,-0.15218 -0.68974,-0.21187 v 14.87662 l 10.74201,-0.002 0.31543,-0.53809 c 0.46253,-0.78922 1.64873,-2.28019 2.36473,-2.97225 0.8666,-0.83766 2.24479,-1.95834 3.12402,-2.54022 1.27726,-0.84536 2.98232,-1.71579 4.50966,-2.30233 0.81037,-0.31119 2.03281,-0.71728 2.71655,-0.90243 1.2835,-0.34754 3.20287,-0.72916 4.65041,-0.92463 0.45582,-0.0616 2.23761,-0.12512 3.95965,-0.1413 3.42316,-0.0321 4.74303,0.0585 6.99869,0.48105 0.70906,0.13279 1.76583,0.37316 2.34828,0.53402 1.15085,0.31783 2.82648,0.8912 3.77545,1.29186 0.84606,0.35723 2.49383,1.24488 3.47544,1.87228 0.45912,0.29345 0.85946,0.53349 0.88975,0.53349 0.0303,0 0.055,-2.47777 0.055,-5.50616 v -5.50617 l -0.35579,-0.24328 c -0.46225,-0.31608 -2.20202,-1.20706 -3.85708,-1.97519 -0.72173,-0.33496 -1.31225,-0.63937 -1.31225,-0.67636 0,-0.037 0.36251,-0.0649 0.80568,-0.0623 0.54832,0.003 0.92344,-0.0453 1.17408,-0.1522 0.36835,-0.15709 0.36837,-0.15701 -0.24436,-0.0999 -0.34219,0.0319 -0.85336,0.008 -1.15787,-0.0538 -0.39151,-0.0796 -0.64414,-0.0827 -0.89605,-0.0108 -0.27418,0.0782 -0.40718,0.0699 -0.60889,-0.0378 -0.14195,-0.0758 -0.28277,-0.17894 -0.31286,-0.22923 -0.0299,-0.0503 -0.0295,-0.1942 9.9e-4,-0.31977 0.0526,-0.21642 0.1026,-0.23135 0.96238,-0.28548 0.4988,-0.0314 1.06036,-0.1233 1.24785,-0.20425 0.18749,-0.081 0.44635,-0.14707 0.57521,-0.14707 0.12888,0 0.21561,-0.0194 0.19268,-0.0431 -0.0229,-0.0237 -0.19666,-0.0607 -0.386,-0.0823 -0.18934,-0.0215 -0.36639,-0.002 -0.39346,0.043 -0.0566,0.0946 -1.14491,0.1123 -1.37176,0.0223 -0.12942,-0.0513 -0.11377,-0.10049 0.10758,-0.33884 0.2359,-0.254 0.26294,-0.35654 0.30489,-1.15228 0.0359,-0.68084 0.0765,-0.87728 0.1842,-0.89086 0.076,-0.01 0.45931,-0.072 0.85183,-0.13879 0.45602,-0.0776 0.71365,-0.16517 0.71365,-0.24276 0,-0.0544 -0.0232,-0.0792 -0.0772,-0.0757 z"
       id="path3240"
       inkscape:connector-curvature="0" />
    <path
       style="fill:#888e69;stroke-width:0.09360709"
       d="m 149.64829,215.42473 c -0.022,-0.11775 -0.0399,-0.0214 -0.0399,0.21409 0,0.23551 0.018,0.33184 0.0399,0.21409 0.0219,-0.11774 0.0219,-0.31044 0,-0.42818 z"
       id="path3238"
       inkscape:connector-curvature="0" />
    <path
       style="fill:#888e69;stroke-width:0.09360709"
       d="m 150.50415,215.24348 c 0,-0.0442 -0.0829,0.005 -0.18416,0.10988 -0.1013,0.10467 -0.18418,0.21836 -0.18418,0.25263 0,0.0343 0.0829,-0.0152 0.18418,-0.10991 0.10129,-0.0947 0.18416,-0.2084 0.18416,-0.2526 z"
       id="path3236"
       inkscape:connector-curvature="0" />
    <path
       style="fill:#888e69;stroke-width:0.09360709"
       d="m 150.0372,214.35427 c 0,-0.0523 -0.0592,0.0119 -0.1316,0.14273 -0.0724,0.13084 -0.13161,0.28071 -0.13161,0.33304 0,0.0523 0.0592,-0.0119 0.13161,-0.14274 0.0724,-0.13083 0.1316,-0.2807 0.1316,-0.33303 z"
       id="path3234"
       inkscape:connector-curvature="0" />
    <path
       style="fill:#888e69;stroke-width:0.09360709"
       d="m 150.36604,214.3067 c -0.0313,-0.0524 -0.10628,-0.0945 -0.16659,-0.0937 -0.0659,0.001 -0.0546,0.0383 0.0284,0.0937 0.076,0.0507 0.15094,0.0929 0.1666,0.0937 0.0156,0.001 0.003,-0.0414 -0.0285,-0.0937 z"
       id="path3232"
       inkscape:connector-curvature="0" />
    <path
       style="fill:#888e69;stroke-width:0.09360709"
       d="m 152.62217,229.26932 c 0,-0.13357 1.17681,-1.69222 1.78025,-2.35789 l 0.60116,-0.66314 0.48639,0.49706 c 0.48638,0.49706 0.48638,0.49706 0.25443,0.76123 -0.31549,0.35928 -0.64725,0.84114 -0.95163,1.38218 -0.25428,0.45197 -0.25428,0.45197 -1.21244,0.45197 -0.52699,0 -0.95816,-0.0321 -0.95816,-0.0714 z"
       id="path3220"
       inkscape:connector-curvature="0" />
    <path
       style="fill:#888e69;stroke-width:0.09360709"
       d="m 156.76608,229.2413 c 0,-0.0547 0.38214,-0.50759 0.84921,-1.00646 0.46707,-0.49887 1.22335,-1.20051 1.68061,-1.55919 0.77808,-0.61032 2.76351,-1.90223 2.92342,-1.90223 0.0396,0 0.072,1.02765 0.072,2.28366 v 2.28365 h -2.76262 c -1.85947,0 -2.76262,-0.0325 -2.76262,-0.0994 z"
       id="path3218"
       inkscape:connector-curvature="0" />
    <path
       style="fill:#888e69;stroke-width:0.09360709"
       d="m 163.87838,226.65989 0.0245,-2.68086 0.73671,-0.27736 c 0.9173,-0.34537 2.8684,-0.85933 4.01417,-1.05739 0.91359,-0.15793 2.26658,-0.29594 3.83626,-0.39132 l 0.94391,-0.0574 v 3.57257 3.57256 h -0.41441 -0.41439 v -2.2259 c 0,-1.87783 -0.0213,-2.23435 -0.13635,-2.27996 -0.31602,-0.12529 -2.81673,-0.33983 -4.69822,-0.40304 -1.11427,-0.0374 -2.15024,-0.0672 -2.30219,-0.0661 -0.15193,0.001 -0.39021,0.0494 -0.52949,0.10732 -0.25324,0.10533 -0.25324,0.10533 -0.25324,1.25842 0,1.09066 0.0104,1.15591 0.193,1.20523 0.10616,0.0287 0.51021,0.21166 0.89786,0.40664 0.73487,0.36957 1.5187,0.93291 2.22426,1.59858 l 0.4144,0.39096 -2.28059,0.004 -2.28059,0.004 0.0245,-2.68086 z"
       id="path3216"
       inkscape:connector-curvature="0" />
    <path
       style="fill:#888e69;stroke-width:0.09360709"
       d="m 174.99934,225.775 v -3.57669 l 0.98995,0.0572 c 1.70454,0.0985 3.61742,0.33145 4.7655,0.58045 0.60778,0.13183 1.69555,0.43372 2.41729,0.67088 l 1.31223,0.43121 v 2.70135 2.70135 h -1.84902 -1.84903 l -0.70638,-0.63707 c -0.38852,-0.35038 -1.14151,-0.93002 -1.67332,-1.28806 -1.10723,-0.74544 -2.44621,-1.47838 -2.53439,-1.38727 -0.0329,0.034 -0.0666,0.7825 -0.075,1.66332 l -0.0152,1.6015 -0.39136,0.0293 -0.39137,0.0293 z"
       id="path3214"
       inkscape:connector-curvature="0" />
    <path
       style="fill:#888e69;stroke-width:0.09360709"
       d="m 186.04979,227.00616 c 0,-2.33456 0,-2.33456 0.20719,-2.22178 0.43832,0.23868 2.0642,1.26742 2.37125,1.50039 0.65363,0.49592 1.35247,1.11115 2.0029,1.76331 0.56101,0.56249 0.66764,0.71917 0.66764,0.98101 0,0.31164 0,0.31164 -2.62449,0.31164 h -2.62449 z"
       id="path3212"
       inkscape:connector-curvature="0" />
    <path
       style="fill:#888e69;stroke-width:0.09360709"
       d="m 155.79028,226.3784 -0.45155,-0.47698 0.36835,-0.33361 c 0.85329,-0.7729 2.85238,-2.23035 3.62671,-2.6441 0.2719,-0.14531 0.27495,-0.14394 0.57352,0.25712 0.16508,0.22176 0.3363,0.45339 0.38048,0.51472 0.0554,0.0769 -0.1286,0.23624 -0.59261,0.5132 -0.94228,0.56239 -1.74037,1.14835 -2.66172,1.95422 l -0.79163,0.69242 z"
       id="path3210"
       inkscape:connector-curvature="0" />
    <path
       style="fill:#888e69;stroke-width:0.09360709"
       d="m 190.92838,225.73886 c -0.48853,-0.41422 -1.83318,-1.33826 -2.31665,-1.59202 -0.23699,-0.12439 -0.45387,-0.26455 -0.48194,-0.31149 -0.0413,-0.0691 0.13788,-0.359 0.64729,-1.04717 0.0293,-0.0397 0.35809,0.158 1.62383,0.97633 l 0.89786,0.58047 v 0.83271 c 0,0.45799 -0.0113,0.83272 -0.025,0.83272 -0.0138,0 -0.1692,-0.1222 -0.34534,-0.27155 z"
       id="path3208"
       inkscape:connector-curvature="0" />
    <path
       style="fill:#888e69;stroke-width:0.09360709"
       d="m 160.40671,223.08448 c -0.17651,-0.24859 -0.32195,-0.4778 -0.32319,-0.50939 -0.001,-0.0316 0.44318,-0.27258 0.98764,-0.53557 0.54447,-0.263 1.57788,-0.67604 2.29646,-0.91791 0.71859,-0.24184 1.36446,-0.43973 1.43528,-0.43973 0.0792,0 0.18912,0.22438 0.28562,0.583 0.0863,0.32067 0.1366,0.60396 0.1118,0.62957 -0.0248,0.0256 -0.63764,0.24902 -1.36191,0.49649 -0.72428,0.24745 -1.67995,0.60644 -2.12371,0.7977 -0.44376,0.1913 -0.8474,0.34781 -0.89696,0.34781 -0.0496,0 -0.23452,-0.20339 -0.41103,-0.45197 z"
       id="path3206"
       inkscape:connector-curvature="0" />
    <path
       style="fill:#888e69;stroke-width:0.09360709"
       d="m 187.14639,223.39476 c -0.35124,-0.19728 -1.35503,-0.58815 -2.68904,-1.04708 -0.64794,-0.22289 -1.20083,-0.4288 -1.22868,-0.45756 -0.0278,-0.0288 0.0171,-0.29301 0.0999,-0.5872 0.0828,-0.2942 0.20786,-0.55764 0.27797,-0.58545 0.18521,-0.0734 2.69952,0.81702 3.80157,1.34633 0.51914,0.24935 0.94286,0.47931 0.9416,0.51103 -10e-4,0.0317 -0.14669,0.26106 -0.32319,0.50965 -0.17652,0.24858 -0.39305,0.45026 -0.48118,0.44816 -0.0881,-0.002 -0.26767,-0.0641 -0.39893,-0.13788 z"
       id="path3204"
       inkscape:connector-curvature="0" />
    <path
       style="fill:#888e69;stroke-width:0.09360709"
       d="m 165.62579,221.56701 c -0.0545,-0.14664 -0.12258,-0.36297 -0.15128,-0.48073 -0.0287,-0.11773 -0.0746,-0.2959 -0.10188,-0.39592 -0.043,-0.15749 0.0359,-0.20193 0.58902,-0.33192 0.79079,-0.18586 3.32045,-0.60734 3.88082,-0.6466 0.41439,-0.029 0.41439,-0.029 0.46904,0.54187 0.0391,0.40793 0.0208,0.59997 -0.064,0.67271 -0.0652,0.056 -0.52496,0.15562 -1.02156,0.22139 -0.88835,0.11765 -3.13841,0.54202 -3.3784,0.63718 -0.0739,0.0293 -0.16212,-0.0575 -0.22176,-0.21798 z"
       id="path3202"
       inkscape:connector-curvature="0" />
    <path
       style="fill:#888e69;stroke-width:0.09360709"
       d="m 181.85984,221.62154 c -0.40519,-0.0929 -1.31686,-0.25864 -2.02591,-0.3682 -0.70908,-0.10958 -1.40679,-0.22296 -1.55046,-0.25198 -0.26123,-0.0528 -0.26123,-0.0528 -0.19685,-0.63809 0.0354,-0.32193 0.0816,-0.60434 0.10259,-0.62757 0.0995,-0.11001 1.62096,0.0958 3.57854,0.48418 0.55712,0.11053 1.08317,0.23851 1.16899,0.28443 0.14413,0.0771 0.14529,0.12156 0.0151,0.5825 -0.0775,0.27447 -0.18916,0.54508 -0.24812,0.60137 -0.0769,0.0734 -0.31562,0.0545 -0.8439,-0.0666 z"
       id="path3200"
       inkscape:connector-curvature="0" />
    <path
       style="fill:#888e69;stroke-width:0.09360709"
       d="m 176.42669,220.84337 c -0.60778,-0.042 -2.12485,-0.052 -3.37128,-0.0222 l -2.26623,0.0542 -0.0522,-0.59533 c -0.0288,-0.32742 -0.0355,-0.6126 -0.0151,-0.63372 0.0205,-0.0211 0.54577,-0.0686 1.16739,-0.10537 1.19983,-0.0711 4.73261,-0.0365 5.38921,0.0527 0.39139,0.0532 0.39139,0.0532 0.38491,0.54693 -0.004,0.27153 -0.0346,0.55794 -0.0691,0.63643 -0.0534,0.12168 -0.22562,0.13146 -1.16766,0.0663 z"
       id="path3198"
       inkscape:connector-curvature="0" />
    <path
       style="fill:#888e69;stroke-width:0.09360709"
       d="m 142.95067,212.94306 c -0.0335,-0.0326 -0.98815,-0.1164 -1.77033,-0.15536 -0.25817,-0.0129 0.22913,-0.57435 0.49845,-0.57435 0.0905,0 0.22414,-0.11926 0.29709,-0.26503 0.1986,-0.39686 0.51195,-0.53066 1.08552,-0.46355 0.85796,0.10037 1.12855,0.17882 1.38753,0.40224 0.139,0.11992 0.33202,0.24403 0.42891,0.27581 0.0969,0.0318 0.20273,0.12932 0.2352,0.21675 0.0384,0.10339 -0.015,0.21785 -0.15264,0.32731 -0.15805,0.12566 -0.38671,0.16917 -0.90234,0.17172 -0.37986,0.002 -0.77458,0.0267 -0.87717,0.0552 -0.10259,0.0285 -0.20619,0.0326 -0.23022,0.009 z"
       id="path3196"
       inkscape:connector-curvature="0" />
    <path
       style="fill:#888e69;stroke-width:0.09360709"
       d="m 141.47961,210.25332 c 0,-0.15393 0.10798,-0.35148 0.28601,-0.52333 0.1573,-0.15183 0.36397,-0.27606 0.45928,-0.27606 0.10256,0 0.27,-0.15831 0.41025,-0.38787 0.14522,-0.23773 0.3685,-0.4455 0.5767,-0.5367 0.29106,-0.12751 0.42548,-0.13202 0.93829,-0.0315 0.32922,0.0645 0.74361,0.139 0.92087,0.16547 0.17728,0.0265 0.46735,0.16543 0.64462,0.30878 0.17726,0.14334 0.41511,0.31167 0.52855,0.37404 0.11343,0.0624 0.27183,0.24451 0.35202,0.40472 0.13539,0.27053 0.13386,0.30488 -0.0214,0.48217 -0.14854,0.1696 -0.24425,0.18475 -0.8585,0.13581 -0.73776,-0.0588 -2.6498,-0.16666 -3.28557,-0.18537 -0.24715,-0.007 -0.44678,0.0473 -0.55977,0.15291 -0.0966,0.0903 -0.22415,0.16422 -0.28347,0.16422 -0.0593,0 -0.10786,-0.11127 -0.10786,-0.24729 z"
       id="path3194"
       inkscape:connector-curvature="0" />
    <path
       style="fill:#888e69;stroke-width:0.09360709"
       d="m 155.44682,209.10573 c -0.0192,-0.0199 -0.60047,-0.041 -1.29167,-0.0469 -1.0919,-0.009 -1.25667,-0.031 -1.25637,-0.16467 9.9e-4,-0.26559 0.35747,-0.77291 0.61484,-0.87401 0.13572,-0.0533 0.34854,-0.20212 0.47295,-0.33067 0.13605,-0.14058 0.33247,-0.23372 0.49285,-0.23372 0.14667,0 0.41543,-0.0642 0.59726,-0.14272 0.4642,-0.20042 1.21021,-0.18286 1.55861,0.0367 0.15599,0.0983 0.33473,0.30626 0.39724,0.46218 0.0823,0.20523 0.21227,0.31399 0.47117,0.39413 0.19665,0.0609 0.44265,0.22249 0.54666,0.35913 0.10401,0.13662 0.18913,0.27868 0.18913,0.31568 0,0.15376 -0.75602,0.27033 -1.72419,0.26583 -0.56844,-0.003 -1.04925,-0.021 -1.06848,-0.0409 z"
       id="path3192"
       inkscape:connector-curvature="0" />
    <path
       style="fill:#888e69;stroke-width:0.09360709"
       d="m 187.34617,209.08282 c -0.22398,-0.0314 -0.42276,-0.10587 -0.44169,-0.16552 -0.0489,-0.15387 0.50514,-0.47862 0.94103,-0.55157 0.3368,-0.0564 0.40225,-0.0299 0.76448,0.30935 l 0.39616,0.37102 -0.43203,0.0612 c -0.46547,0.0659 -0.60243,0.0632 -1.22795,-0.0245 z"
       id="path3190"
       inkscape:connector-curvature="0" />
    <path
       style="fill:#888e69;stroke-width:0.09360709"
       d="m 186.12322,207.72928 c -0.17015,-0.10866 0.0137,-0.41347 0.37915,-0.62859 0.19839,-0.11677 0.58562,-0.23964 0.86052,-0.27303 0.46841,-0.0569 0.51956,-0.0421 0.81352,0.23449 0.17254,0.16235 0.38622,0.36015 0.47485,0.43953 0.0886,0.0794 0.16104,0.17647 0.16092,0.21572 0,0.0857 -2.55569,0.097 -2.68896,0.0119 z"
       id="path3188"
       inkscape:connector-curvature="0" />
    <path
       style="fill:#888e69;stroke-width:0.09360709"
       d="m 180.06413,207.07914 c -0.11827,-0.0882 -0.10501,-0.13003 0.0921,-0.29075 0.12663,-0.10324 0.34024,-0.30158 0.47468,-0.44076 0.22865,-0.23667 0.28136,-0.24905 0.81496,-0.19142 0.44396,0.048 0.65016,0.1268 0.92967,0.35553 0.19751,0.16166 0.35914,0.35455 0.35914,0.42866 0,0.095 -0.11543,0.13488 -0.39138,0.13521 -0.21526,0 -0.78504,0.0244 -1.2662,0.0535 -0.56209,0.0341 -0.9242,0.0162 -1.01296,-0.05 z"
       id="path3186"
       inkscape:connector-curvature="0" />
    <path
       style="fill:#888e69;stroke-width:0.09360709"
       d="m 155.01643,205.73343 c -0.17727,-0.0469 -0.97498,-0.11332 -1.77268,-0.14767 -0.7977,-0.0343 -1.45021,-0.0879 -1.45002,-0.11912 0,-0.0312 0.0824,-0.19584 0.18282,-0.36592 0.10036,-0.17009 0.23882,-0.30925 0.30768,-0.30925 0.0689,0 0.19844,-0.0836 0.28792,-0.18576 0.0895,-0.10218 0.38329,-0.23309 0.65291,-0.29093 0.26961,-0.0578 0.68913,-0.092 0.93229,-0.0759 0.3819,0.0253 0.46732,0.0704 0.62756,0.33137 0.10201,0.16617 0.27756,0.32725 0.39012,0.35797 0.2588,0.0706 0.5781,0.41984 0.5781,0.63223 0,0.0892 -0.0656,0.18817 -0.14566,0.21995 -0.16695,0.0662 -0.16152,0.0666 -0.59104,-0.047 z"
       id="path3184"
       inkscape:connector-curvature="0" />
    <path
       style="fill:#888e69;stroke-width:0.09360709"
       d="m 140.74293,205.37639 c -0.12988,-0.0391 -0.24194,-0.15229 -0.25712,-0.25957 -0.0148,-0.10461 0.0691,-0.33732 0.18638,-0.51717 0.24935,-0.38232 0.74497,-0.75095 1.11216,-0.82719 0.19303,-0.0401 0.3068,-0.15945 0.44823,-0.47034 0.10424,-0.22916 0.30565,-0.50207 0.44755,-0.60647 0.36562,-0.26902 1.12921,-0.40019 1.69604,-0.29139 0.25555,0.0491 0.58128,0.13525 0.72386,0.19153 0.14258,0.0563 0.40364,0.10234 0.58012,0.10234 0.1765,0 0.43289,0.0599 0.56978,0.13299 0.13688,0.0731 0.33165,0.22855 0.43283,0.34535 0.10118,0.11682 0.35808,0.29008 0.57091,0.38502 0.24629,0.10988 0.46666,0.3043 0.60618,0.53479 0.12058,0.19919 0.26555,0.50163 0.32217,0.6721 0.10009,0.30137 0.0938,0.31386 -0.22605,0.45197 -0.18095,0.0781 -0.44556,0.14203 -0.58803,0.14203 -0.14245,0 -0.36335,-0.041 -0.49085,-0.0911 -0.15381,-0.0604 -0.40292,-0.054 -0.7402,0.0191 -0.38832,0.0842 -0.72094,0.0832 -1.4087,-0.004 -0.60726,-0.0772 -1.08022,-0.0858 -1.45287,-0.0266 -0.81416,0.1295 -2.26791,0.19657 -2.53239,0.11686 z"
       id="path3182"
       inkscape:connector-curvature="0" />
    <path
       style="fill:#888e69;stroke-width:0.09360709"
       d="m 181.26127,205.25358 c 0,-0.0748 0.17582,-0.27555 0.3907,-0.44621 0.34339,-0.2727 0.4354,-0.30257 0.75972,-0.24663 0.42104,0.0726 0.87549,0.3686 0.87549,0.57025 0,0.0995 -0.12049,0.13625 -0.44692,0.13625 -0.24582,0 -0.70165,0.0275 -1.01295,0.0611 -0.45676,0.0493 -0.56604,0.0349 -0.56604,-0.0748 z"
       id="path3180"
       inkscape:connector-curvature="0" />
    <path
       style="fill:#888e69;stroke-width:0.09360709"
       d="m 185.33852,205.02548 c -0.10869,-0.0821 -0.11129,-0.14401 -0.0152,-0.36197 0.0638,-0.14462 0.30512,-0.39499 0.53631,-0.55638 0.47044,-0.32838 1.45528,-0.58856 1.91122,-0.5049 0.17448,0.032 0.39488,0.17814 0.54285,0.3599 0.13703,0.16831 0.36476,0.35629 0.50608,0.41776 0.14132,0.0615 0.32285,0.24345 0.4034,0.4044 0.0806,0.16095 0.11431,0.3003 0.075,0.30967 -0.0393,0.009 -0.91679,0.02 -1.95002,0.0238 -1.1665,0.004 -1.92828,-0.0308 -2.00969,-0.0923 z"
       id="path3178"
       inkscape:connector-curvature="0" />
    <path
       style="fill:#888e69;stroke-width:0.09360709"
       d="m 128.00437,140.08881 c -0.37987,-0.10093 -1.02367,-0.35624 -1.43068,-0.56734 -0.40702,-0.21111 -0.99648,-0.59825 -1.30994,-0.86031 -0.31344,-0.26206 -0.78013,-0.74302 -1.03708,-1.06879 -0.25694,-0.32578 -0.63009,-0.93487 -0.82922,-1.35354 -0.19912,-0.41867 -0.45051,-1.12235 -0.55864,-1.56375 -0.16393,-0.66918 -0.18963,-0.99331 -0.15465,-1.95061 0.0438,-1.19874 0.25411,-2.199 0.50535,-2.40355 0.0768,-0.0625 0.16743,-0.25518 0.20147,-0.42818 0.0447,-0.22714 0.11853,-0.323 0.26567,-0.34496 0.11209,-0.0167 0.20379,0.014 0.20379,0.0684 0,0.0543 -0.0622,0.0741 -0.13813,0.044 -0.10602,-0.042 -0.1378,0.0195 -0.13672,0.26465 0.001,0.17569 0.0319,0.36655 0.0691,0.42413 0.0934,0.14448 0.43822,0.32349 0.62322,0.32349 0.0843,0 0.27387,-0.13339 0.42125,-0.29641 0.22383,-0.24759 0.29105,-0.27663 0.40802,-0.17633 0.10795,0.0926 0.1932,0.0951 0.37187,0.011 0.12751,-0.06 0.3657,-0.10915 0.52932,-0.10915 0.33392,0 0.70681,-0.22697 0.70681,-0.43023 0,-0.0737 -0.0854,-0.18119 -0.1897,-0.23889 -0.13363,-0.0739 -0.18126,-0.18033 -0.16116,-0.36017 0.0232,-0.20748 0.0803,-0.25944 0.30481,-0.27755 0.25987,-0.021 0.26351,-0.0167 0.0614,0.0712 -0.1182,0.0515 -0.1986,0.14406 -0.17869,0.2058 0.0199,0.0617 0.10208,0.15519 0.18259,0.20766 0.10537,0.0687 0.21346,0.05 0.38588,-0.0668 0.29714,-0.20116 0.32076,-0.58192 0.0455,-0.73411 -0.11804,-0.0653 -0.36141,-0.0825 -0.62159,-0.0441 -0.23518,0.0348 -0.65212,0.0608 -0.92653,0.058 -0.27441,-0.003 -0.55413,0.0421 -0.62159,0.1 -0.0675,0.0579 -0.12266,0.20834 -0.12266,0.3344 0,0.23897 0.19444,0.38189 0.36841,0.27079 0.0712,-0.0455 0.0658,-0.10857 -0.0186,-0.21422 -0.10003,-0.12525 -0.097,-0.14202 0.0185,-0.10257 0.16987,0.058 0.23501,0.34994 0.10746,0.48172 -0.14079,0.14549 -0.54733,0.004 -0.61416,-0.2132 -0.0322,-0.10483 -0.16167,-0.31723 -0.2877,-0.472 -0.22915,-0.28139 -0.22915,-0.28139 -0.0166,-0.57872 0.33181,-0.4643 1.25029,-1.19841 2.00819,-1.6051 0.37985,-0.20384 1.00144,-0.47077 1.38131,-0.59317 0.58722,-0.18924 0.88369,-0.22233 1.97985,-0.22093 1.20161,0.002 1.34303,0.0214 2.08081,0.29247 1.28355,0.4716 1.97026,0.91906 2.89378,1.88561 0.68252,0.71432 0.90843,1.03009 1.26689,1.77081 0.41476,0.85708 0.62758,1.55113 0.74966,2.44489 0.0507,0.37117 0.0348,0.41231 -0.20965,0.54294 -0.35117,0.18764 -0.60152,0.74047 -0.53297,1.17692 0.0703,0.44796 0.19656,0.57139 0.4301,0.42067 0.11266,-0.0727 0.18189,-0.0801 0.18189,-0.0194 0,0.0539 -0.10513,0.14749 -0.23362,0.20797 -0.19301,0.0909 -0.26105,0.0818 -0.39137,-0.0524 -0.0868,-0.0893 -0.19919,-0.4056 -0.24985,-0.70283 -0.0909,-0.53379 -0.0971,-0.54191 -0.50062,-0.66235 -0.32034,-0.0956 -0.53298,-0.0982 -0.98501,-0.0122 -0.57647,0.10976 -0.57647,0.10976 -0.84856,-0.1912 -0.2346,-0.25951 -0.33493,-0.30097 -0.72817,-0.30097 -0.35909,0 -0.50902,0.0507 -0.70498,0.23834 -0.19586,0.18755 -0.28573,0.21796 -0.42179,0.14272 -0.0951,-0.0526 -0.38136,-0.0956 -0.63615,-0.0956 -0.34828,0 -0.48377,0.0413 -0.54597,0.16652 -0.0455,0.0916 -0.10948,0.41274 -0.14217,0.71368 -0.0492,0.45294 -0.13181,0.64547 -0.47963,1.11803 -0.2311,0.31399 -0.49217,0.57088 -0.58015,0.57088 -0.088,0 -0.24043,-0.0629 -0.33876,-0.1397 -0.0983,-0.0768 -0.26162,-0.13955 -0.36291,-0.13936 -0.18103,7.7e-4 -0.18094,0.002 0.006,0.11592 0.10447,0.0636 0.33629,0.23332 0.51516,0.37723 0.17888,0.14392 0.38878,0.26167 0.46643,0.26167 0.0776,0 0.19248,-0.0639 0.25518,-0.14193 0.0993,-0.12371 0.14866,-0.11181 0.38377,0.0926 0.14837,0.12901 0.43513,0.28575 0.63722,0.34831 0.32671,0.10115 0.39518,0.0925 0.61746,-0.0782 0.13749,-0.10559 0.26289,-0.30339 0.27867,-0.43955 0.0158,-0.13615 -0.0168,-0.3353 -0.0723,-0.44256 -0.0556,-0.10725 -0.178,-0.19501 -0.2721,-0.19501 -0.0941,0 -0.19849,0.0738 -0.232,0.16401 -0.0382,0.10277 -0.001,0.20935 0.0998,0.28546 0.14892,0.11251 0.14635,0.12144 -0.0348,0.12144 -0.11343,0 -0.21966,-0.0784 -0.25292,-0.1867 -0.0854,-0.27799 0.10681,-0.57451 0.37239,-0.57451 0.16918,0 0.30642,0.11672 0.52626,0.44759 0.16356,0.24617 0.39667,0.5459 0.51802,0.66606 0.12821,0.12696 0.33443,0.21848 0.49228,0.21848 0.1494,0 0.39505,-0.0749 0.54591,-0.16651 0.26289,-0.15961 0.27949,-0.1592 0.39963,0.01 0.10533,0.14816 0.19847,0.1659 0.5835,0.11119 0.35189,-0.05 0.51242,-0.0284 0.6921,0.0933 0.13914,0.0942 0.3103,0.13334 0.4224,0.0966 0.10366,-0.034 0.21378,-0.16601 0.24471,-0.29335 0.0309,-0.12735 0.0828,-0.23017 0.11532,-0.22851 0.0325,0.002 0.13852,0.0651 0.23561,0.14104 0.17398,0.13604 0.17398,0.14311 0,0.4899 -0.31765,0.63317 -1.08538,1.61147 -1.71522,2.18565 -0.3398,0.30978 -0.96139,0.74151 -1.38131,0.95939 -0.41992,0.21789 -1.09244,0.48439 -1.4945,0.59222 -0.53403,0.14324 -1.00552,0.19466 -1.74966,0.19084 -0.69128,-0.004 -1.24058,-0.0642 -1.70928,-0.18876 z"
       id="path3176"
       inkscape:connector-curvature="0" />
    <path
       style="fill:#888e69;stroke-width:0.09360709"
       d="m 153.88085,135.34654 c 0,-0.18034 -0.047,-0.29711 -0.11971,-0.29711 -0.0658,0 -0.16477,0.0465 -0.21983,0.10344 -0.0721,0.0745 -0.1187,0.0724 -0.16652,-0.008 -0.0379,-0.0634 0.0168,-0.17131 0.12772,-0.25157 0.1068,-0.0773 0.19417,-0.18197 0.19417,-0.23263 0,-0.0507 -0.1061,-0.13379 -0.23576,-0.18473 -0.12967,-0.0509 -0.21011,-0.13552 -0.17874,-0.18795 0.0752,-0.12574 0.40798,-0.12095 0.77475,0.0112 0.22342,0.0805 0.27938,0.1444 0.22905,0.26167 -0.0366,0.0853 -0.0848,0.3141 -0.10706,0.50835 -0.0223,0.19425 -0.0985,0.40287 -0.16928,0.46362 -0.10565,0.0906 -0.12879,0.0571 -0.12879,-0.18666 z"
       id="path3174"
       inkscape:connector-curvature="0" />
    <path
       style="fill:#888e69;stroke-width:0.09360709"
       d="m 155.63315,135.29023 c -0.21363,-0.23498 -0.21363,-0.23498 0.03,-0.33068 0.13401,-0.0526 0.24362,-0.13435 0.24362,-0.18157 0,-0.0472 -0.0622,-0.13916 -0.13812,-0.2043 -0.076,-0.0651 -0.13813,-0.17882 -0.13813,-0.25261 0,-0.0738 -0.0932,-0.17286 -0.2072,-0.22019 -0.1758,-0.073 -0.15067,-0.087 0.16577,-0.0921 0.20511,-0.003 0.41918,0.0417 0.47569,0.10013 0.0756,0.0781 0.15887,0.0656 0.31517,-0.0476 0.11683,-0.0846 0.24463,-0.15373 0.28402,-0.15373 0.0394,0 0.0716,0.0718 0.0716,0.15958 0,0.0878 0.13468,0.28375 0.29927,0.4355 0.16462,0.15175 0.23301,0.25504 0.15201,0.2295 -0.081,-0.0255 -0.34093,-0.004 -0.57761,0.0484 -0.36629,0.0807 -0.44987,0.14317 -0.56169,0.41971 -0.0722,0.17867 -0.14697,0.32486 -0.16606,0.32486 -0.0191,0 -0.13082,-0.10573 -0.24832,-0.23496 z"
       id="path3172"
       inkscape:connector-curvature="0" />
    <path
       style="fill:#888e69;stroke-width:0.09360709"
       d="m 151.24046,134.83253 c -0.0345,-0.0577 -0.0243,-0.11883 0.0226,-0.13585 0.0469,-0.017 0.14516,-0.07 0.21826,-0.11774 0.10758,-0.0703 0.11234,-0.13338 0.025,-0.33149 -0.11793,-0.2674 -0.0182,-0.32927 0.1644,-0.10196 0.0631,0.0785 0.21317,0.14273 0.33359,0.14273 0.12041,0 0.21951,0.0535 0.22019,0.11893 9.9e-4,0.0654 0.0266,0.21683 0.0577,0.33646 0.0534,0.20585 0.0431,0.21125 -0.19192,0.10061 -0.18634,-0.0877 -0.31557,-0.0907 -0.5177,-0.0119 -0.19623,0.0765 -0.2864,0.0766 -0.33211,0 z"
       id="path3170"
       inkscape:connector-curvature="0" />
    <path
       style="fill:#888e69;stroke-width:0.09360709"
       d="m 157.01181,133.05685 c 0,-0.10158 -0.0481,-0.21543 -0.10699,-0.25301 -0.0596,-0.038 -0.17323,0.0162 -0.25637,0.12226 -0.1132,0.14445 -0.17388,0.16349 -0.25058,0.0787 -0.0746,-0.0826 -0.0548,-0.14191 0.0758,-0.22615 0.0973,-0.0628 0.15219,-0.15561 0.12192,-0.20623 -0.0303,-0.0506 -0.13549,-0.0921 -0.23379,-0.0921 -0.0983,0 -0.17875,-0.0454 -0.17875,-0.10078 0,-0.0627 0.20023,-0.0897 0.52951,-0.0714 0.47598,0.0265 0.5326,0.052 0.56015,0.2532 0.0403,0.29408 -0.0565,0.68017 -0.17054,0.68017 -0.0497,0 -0.0903,-0.0831 -0.0903,-0.18469 z"
       id="path3168"
       inkscape:connector-curvature="0" />
    <path
       style="fill:#888e69;stroke-width:0.09360709"
       d="m 158.41614,131.93446 c 0.1393,-0.15034 0.25324,-0.30392 0.25324,-0.34131 0,-0.0374 -0.11394,-0.0455 -0.25324,-0.018 -0.1393,0.0275 -0.20118,0.0246 -0.13755,-0.006 0.0636,-0.0309 0.0923,-0.0954 0.0636,-0.14329 -0.0286,-0.0479 0.0525,-0.087 0.18035,-0.087 0.14029,0 0.27259,-0.0776 0.33376,-0.19568 0.081,-0.15642 0.0618,-0.26496 -0.0958,-0.54095 -0.17058,-0.29872 -0.1745,-0.32725 -0.0291,-0.21156 0.24755,0.1969 0.76666,0.77135 0.76666,0.84841 0,0.1175 -0.40111,0.44292 -0.87482,0.70974 -0.46044,0.25933 -0.46044,0.25933 -0.20721,-0.014 z"
       id="path510-5"
       inkscape:connector-curvature="0" />
    <path
       style="display:inline;fill:#888e69;stroke:#ffe6d5;stroke-width:0.09360709;stroke-opacity:1"
       d="m 139.67144,204.81207 c -0.0766,0.002 -0.34946,0.069 -0.65915,0.16429 -1.16365,0.35808 -2.43082,0.50557 -4.39294,0.51155 -1.01872,0.003 -2.2231,-0.0486 -2.69508,-0.11566 -0.46932,-0.0667 -1.23556,-0.22144 -1.70276,-0.34383 -0.4672,-0.12241 -0.86511,-0.20625 -0.88435,-0.18638 -0.0192,0.0199 0.0977,0.20937 0.26004,0.42112 0.1623,0.21175 0.35387,0.38497 0.42559,0.38497 0.077,0 0.13034,0.0955 0.13034,0.23356 0,0.19051 0.0551,0.24215 0.29923,0.28021 0.16461,0.0257 0.56808,0.0437 0.89656,0.04 0.59726,-0.007 0.59725,-0.007 0.56661,0.3621 -0.0168,0.2028 -0.0497,0.40079 -0.0731,0.44004 -0.0234,0.0393 -0.35093,0.0714 -0.72779,0.0714 -0.68523,0 -0.68524,3e-5 -0.68524,0.33306 0,0.33304 2e-5,0.33306 0.70002,0.33306 h 0.70002 l -0.0621,0.68989 c -0.0341,0.37941 -0.12075,1.199 -0.19255,1.82128 -0.13056,1.13141 -0.13055,1.1314 -0.95415,1.9982 -0.45298,0.47669 -1.13227,1.25208 -1.50956,1.72309 -0.73142,0.91311 -1.09336,1.28434 -2.16704,2.22255 -0.50063,0.43748 -0.72371,0.57592 -0.8571,0.53218 -0.0992,-0.0325 -0.64405,-0.28428 -1.21097,-0.55938 -0.56691,-0.27514 -1.24907,-0.55422 -1.51586,-0.62024 -0.26679,-0.066 -0.58068,-0.0952 -0.69758,-0.0649 -0.1169,0.0303 -0.68608,0.53888 -1.26469,1.13007 -0.57862,0.59118 -1.66281,1.54497 -2.40934,2.1195 l -1.35724,1.04451 -10e-4,4.78131 -0.001,4.78117 17.24325,-0.003 17.24339,-0.003 0.31544,-0.53821 c 0.46253,-0.78922 1.64872,-2.28007 2.36473,-2.97213 0.86659,-0.83765 2.24478,-1.95834 3.12401,-2.54022 1.27727,-0.84535 2.9822,-1.71579 4.50954,-2.30233 0.81036,-0.31119 2.0328,-0.71728 2.71654,-0.90242 1.28351,-0.34755 3.20287,-0.72916 4.65042,-0.92464 0.45582,-0.0616 2.23774,-0.12512 3.95977,-0.14129 3.42317,-0.0321 4.74291,0.0585 6.99857,0.48104 0.70906,0.1328 1.76582,0.37304 2.34828,0.53389 1.15084,0.31782 2.8266,0.8912 3.77558,1.29187 0.84603,0.35722 2.4937,1.24488 3.47531,1.87228 0.45911,0.29345 0.85958,0.53362 0.88987,0.53362 0.0303,0 0.055,-2.47777 0.055,-5.50617 v -5.50616 l -0.35579,-0.24328 c -0.46226,-0.31609 -2.20215,-1.20707 -3.85721,-1.9752 -0.72174,-0.33496 -1.31226,-0.63936 -1.31226,-0.67636 0,-0.037 0.36264,-0.0649 0.80582,-0.0623 0.54831,0.003 0.92343,-0.0453 1.17407,-0.15221 0.36835,-0.15709 0.36837,-0.15713 -0.24435,-0.10002 -0.3422,0.0319 -0.85337,0.008 -1.15788,-0.0536 -0.3915,-0.0796 -0.64413,-0.0826 -0.89605,-0.0108 -0.27418,0.0782 -0.4073,0.0699 -0.60902,-0.0378 -0.14195,-0.0758 -0.28264,-0.17906 -0.31273,-0.22935 -0.0298,-0.0503 -0.0295,-0.1942 0.001,-0.31978 0.0526,-0.21642 0.1026,-0.23122 0.96237,-0.28534 0.49881,-0.0314 1.06037,-0.12331 1.24786,-0.20426 0.18748,-0.0809 0.44634,-0.1472 0.57521,-0.1472 0.12888,0 0.21549,-0.0194 0.19255,-0.0431 -0.0229,-0.0237 -0.19666,-0.0607 -0.386,-0.0823 -0.18934,-0.0215 -0.36639,-0.002 -0.39346,0.0431 -0.0566,0.0946 -1.14491,0.1123 -1.37177,0.0223 -0.12941,-0.0513 -0.11375,-0.10048 0.10759,-0.33883 0.2359,-0.25401 0.26306,-0.35655 0.30502,-1.15228 0.0359,-0.68084 0.0765,-0.87728 0.1842,-0.89086 0.076,-0.01 0.4593,-0.072 0.85183,-0.1388 0.45601,-0.0776 0.71365,-0.1653 0.71365,-0.24288 0,-0.087 -0.0594,-0.0981 -0.2094,-0.0392 -0.11517,0.0452 -0.47344,0.0861 -0.79604,0.0908 -0.35805,0.005 -0.6701,0.0651 -0.80105,0.15378 -0.11797,0.0799 -0.24906,0.28415 -0.2914,0.45397 -0.0721,0.28916 -0.10547,0.31069 -0.52688,0.33857 -0.54644,0.0361 -1.66145,-0.31109 -1.94737,-0.60643 -0.23904,-0.24694 -0.46909,-0.34864 -0.53588,-0.23698 -0.027,0.045 -0.14225,0.0654 -0.25618,0.0451 -0.1139,-0.0203 -0.0581,0.0158 0.12391,0.0803 0.18204,0.0645 0.47215,0.2287 0.64463,0.36486 0.17249,0.13617 0.45072,0.3205 0.61827,0.40968 0.16756,0.0892 0.61996,0.2455 1.00544,0.34738 0.38545,0.10186 0.71969,0.20465 0.74269,0.22843 0.10553,0.10902 -0.10384,0.35157 -0.56917,0.65914 -0.27874,0.18424 -0.57529,0.44282 -0.65889,0.57463 -0.15198,0.23966 -0.15196,0.23962 -0.56711,-0.0879 -0.27739,-0.21885 -0.59468,-0.36405 -0.95621,-0.43755 -0.30811,-0.0626 -0.51701,-0.15005 -0.48523,-0.2032 0.0339,-0.0566 -0.0209,-0.0682 -0.13908,-0.0294 -0.10718,0.0352 -0.24683,0.0307 -0.31029,-0.01 -0.0635,-0.0405 -0.27076,-0.0776 -0.46056,-0.0825 -0.20084,-0.005 -0.2973,0.0224 -0.23073,0.0661 0.0629,0.0413 0.18596,0.0755 0.27353,0.0765 0.28372,0.003 1.5619,0.48481 1.83207,0.69121 0.32588,0.24895 0.76159,0.88533 0.6891,1.00652 -0.0296,0.0495 -0.20965,0.11933 -0.40014,0.1551 -0.19049,0.0358 -0.92646,0.22902 -1.63554,0.42952 -4.70544,1.33043 -8.4214,2.68103 -9.31586,3.386 -0.22533,0.17756 -0.52016,0.68793 -1.1395,1.97256 -0.56738,1.17691 -0.9526,1.85511 -1.20056,2.11359 -0.35326,0.36823 -0.38375,0.38011 -0.93885,0.36499 -0.57699,-0.0157 -0.85418,-0.0974 -3.15216,-0.92963 -0.7452,-0.26988 -1.35355,-0.43347 -1.61149,-0.43242 -0.41796,0.001 -1.33334,0.14324 -2.75061,0.42651 -1.00088,0.20006 -2.74202,0.72441 -3.55796,1.07158 -0.35423,0.15072 -0.84903,0.41008 -1.09953,0.57634 -0.25048,0.16628 -0.51989,0.30644 -0.5986,0.31123 -0.0787,0.005 0.20821,0.0733 0.63755,0.15207 0.42934,0.0788 0.9887,0.22533 1.2431,0.32556 0.25441,0.10023 0.65842,0.33114 0.89772,0.51312 0.49436,0.37591 1.03964,1.25313 0.8927,1.43605 -0.0499,0.0622 -0.22398,0.16904 -0.3869,0.23763 -0.16293,0.0686 -0.53946,0.27093 -0.83666,0.44964 -0.59529,0.35782 -0.64086,0.34193 -0.75003,-0.26221 -0.0935,-0.51781 -0.62141,-1.63216 -0.9643,-2.03565 -0.16847,-0.19828 -0.45522,-0.43767 -0.63729,-0.53191 -0.21694,-0.1123 -0.64904,-0.19204 -1.25364,-0.23133 -0.93996,-0.0611 -2.78748,-0.36551 -3.34613,-0.55137 -0.24813,-0.0825 -0.3492,-0.1989 -0.51364,-0.59158 -0.11261,-0.26889 -0.25596,-0.73397 -0.31865,-1.03346 l -0.11401,-0.54454 -0.35657,0.38734 c -0.24053,0.26126 -0.3959,0.36174 -0.4774,0.30887 -0.0901,-0.0585 -0.074,-0.0876 0.0634,-0.11461 0.10131,-0.0199 0.24244,-0.0852 0.31377,-0.14497 0.0713,-0.0598 0.20515,-0.28 0.29731,-0.48933 0.12213,-0.27741 0.16817,-0.61576 0.16954,-1.24784 0.001,-0.47694 0.0426,-1.08807 0.0922,-1.3581 0.1463,-0.79706 1.01054,-1.9514 1.84377,-2.46268 0.17726,-0.10877 0.60833,-0.26613 0.958,-0.34975 0.34966,-0.0836 0.82624,-0.25468 1.05903,-0.37997 0.2328,-0.12528 0.63957,-0.25055 0.90402,-0.27851 0.45948,-0.0486 0.91623,-0.21868 0.82907,-0.30874 -0.0226,-0.0234 -0.15318,0.002 -0.29011,0.0553 -0.13693,0.0538 -0.3734,0.0978 -0.52547,0.0978 -0.24193,0 -0.26857,-0.0259 -0.21298,-0.20688 0.0562,-0.18296 0.0226,-0.17197 -0.29102,0.0952 -0.19502,0.16611 -0.42236,0.30204 -0.50528,0.30204 -0.0829,0 -0.26002,-0.0888 -0.39346,-0.19728 -0.13345,-0.10848 -0.24255,-0.15645 -0.24255,-0.10673 0,0.0497 0.0632,0.1445 0.14036,0.21069 0.0772,0.0662 0.1152,0.14631 0.0846,0.17796 -0.0306,0.0316 -0.3833,0.10581 -0.78383,0.16495 -0.403,0.0595 -0.94465,0.21701 -1.21277,0.35264 -0.26649,0.1348 -0.72903,0.47037 -1.02793,0.74575 -0.54344,0.50071 -0.54355,0.50071 -0.69076,0.26616 -0.33347,-0.53128 -0.86078,-1.02134 -1.56368,-1.45327 -0.40956,-0.25166 -0.80746,-0.55023 -0.88422,-0.66348 -0.0768,-0.11323 -0.1396,-0.29901 -0.1396,-0.41283 0,-0.18124 0.0772,-0.22051 0.62162,-0.31623 1.07048,-0.18822 1.97458,-0.48577 2.78814,-0.9178 0.43185,-0.22932 1.03092,-0.63174 1.33128,-0.89415 0.41656,-0.36393 0.61863,-0.4771 0.85221,-0.4771 0.31836,0 1.00879,-0.25118 0.92587,-0.33687 -0.0261,-0.0269 -0.15947,-0.005 -0.29641,0.0488 -0.33829,0.13291 -0.67325,0.1231 -0.72381,-0.0212 -0.0332,-0.0946 -0.0811,-0.0948 -0.23419,-0.002 -0.15987,0.0975 -0.2064,0.0915 -0.27469,-0.0346 -0.0659,-0.12168 -0.0932,-0.0948 -0.13767,0.13498 -0.0427,0.22087 -0.16748,0.35285 -0.54307,0.5745 -1.05415,0.6221 -2.31885,0.96362 -3.57712,0.96631 l -0.7873,0.002 -0.117,-0.58484 c -0.0824,-0.41213 -0.19451,-0.66494 -0.3797,-0.85629 -0.24274,-0.25082 -0.31592,-0.27154 -0.96044,-0.27154 -0.57497,0 -0.73015,-0.0335 -0.88191,-0.19032 -0.1013,-0.10467 -0.20102,-0.19031 -0.2216,-0.19031 -0.0206,0 -0.0155,0.087 0.0114,0.19334 0.0452,0.17863 0.0182,0.18887 -0.354,0.13445 -0.22158,-0.0324 -0.59968,-0.16027 -0.84026,-0.28402 -0.24056,-0.12377 -0.43742,-0.19823 -0.43742,-0.16561 0,0.0326 0.0686,0.13759 0.15245,0.2333 0.0838,0.0957 0.11328,0.17401 0.0654,0.17401 -0.0479,0 -0.32957,-0.0653 -0.62599,-0.1451 -0.29642,-0.0798 -0.55466,-0.12874 -0.57393,-0.10883 -0.0601,0.0621 0.9075,0.34262 1.53463,0.44491 0.32921,0.0537 0.90938,0.15945 1.28925,0.235 0.37986,0.0755 0.84452,0.13907 1.03268,0.14116 0.25034,0.003 0.36966,0.0571 0.445,0.20254 0.0607,0.1171 0.10935,0.79231 0.11839,1.64371 0.0144,1.35377 0.0289,1.46295 0.22893,1.7281 0.11743,0.15567 0.37656,0.41756 0.57585,0.58199 0.30597,0.25239 0.33726,0.30906 0.20091,0.36367 -0.28941,0.11591 -2.01701,0.22193 -2.40908,0.14787 -0.2102,-0.0397 -0.45954,-0.14458 -0.55413,-0.23303 -0.12145,-0.11358 -0.18291,-0.12721 -0.20901,-0.0463 -0.0284,0.0882 -0.088,0.0864 -0.25836,-0.008 -0.16177,-0.0894 -0.23093,-0.0932 -0.25656,-0.0137 -0.0193,0.0598 -0.12619,0.10869 -0.23754,0.10869 -0.11137,0 -0.42168,-0.0587 -0.68962,-0.13051 -0.26793,-0.0718 -0.4531,-0.0954 -0.41145,-0.0524 0.0955,0.0985 1.10654,0.37327 1.37318,0.37327 0.10986,0 0.42361,0.10594 0.6972,0.23539 0.2736,0.12943 0.78614,0.2784 1.13911,0.33109 0.35295,0.0527 1.16177,0.0968 1.79736,0.0978 1.15563,0.002 1.15566,0.002 1.26624,0.31794 0.0608,0.17379 0.11054,0.46731 0.11054,0.6523 0,0.2395 -0.0952,0.46524 -0.33034,0.78348 -0.18169,0.24586 -0.3577,0.43225 -0.39127,0.41428 -1.03039,-0.5518 -1.28879,-0.64363 -1.81253,-0.64363 -0.3049,-4e-5 -0.85353,0.0855 -1.21907,0.19018 -0.75283,0.21557 -1.97568,0.26766 -1.79042,0.0762 0.18142,-0.18745 0.12574,-0.26957 -0.10823,-0.15942 -0.17499,0.0824 -0.27098,0.0678 -0.47906,-0.0731 -0.25347,-0.17142 -0.25854,-0.17136 -0.19448,0.001 0.0589,0.15867 0.0316,0.17036 -0.26415,0.11304 -0.18148,-0.0352 -0.39608,-0.0901 -0.47675,-0.1221 -0.0926,-0.0367 -0.12374,-0.0198 -0.0844,0.0459 0.0342,0.0572 0.25862,0.16588 0.4986,0.24144 1.49713,0.47136 1.51906,0.47492 2.85087,0.45831 1.23246,-0.0154 1.33629,-0.002 1.76613,0.22278 0.25117,0.13152 0.47897,0.27637 0.50618,0.32188 0.0272,0.0455 -0.0574,0.22825 -0.18805,0.40614 -0.13067,0.1779 -0.34001,0.54935 -0.46518,0.8254 l -0.22765,0.50195 -0.48523,-0.28692 c -0.71861,-0.42484 -1.65568,-0.76409 -2.538,-0.91899 -0.43052,-0.0755 -1.36973,-0.31268 -2.08709,-0.52692 -1.2885,-0.38482 -1.31252,-0.39707 -1.97989,-1.00731 -0.37155,-0.33975 -1.07567,-0.95402 -1.56484,-1.36507 -0.77791,-0.65377 -0.89622,-0.79244 -0.94398,-1.10667 -0.12102,-0.79635 -0.33074,-2.75444 -0.33074,-3.08792 0,-0.35548 0,-0.35542 0.66763,-0.38339 0.66762,-0.0279 0.66757,-0.028 0.69643,-0.33726 0.0289,-0.30922 0.029,-0.30926 -0.66211,-0.30926 -0.38008,0 -0.71003,-0.0321 -0.73318,-0.0714 -0.0232,-0.0393 -0.0567,-0.24162 -0.0746,-0.44977 -0.0324,-0.37841 -0.0324,-0.37843 0.61224,-0.38851 1.03651,-0.0162 1.05903,-0.0213 1.05903,-0.24106 0,-0.11916 0.074,-0.21917 0.18407,-0.24893 0.10125,-0.0274 0.30794,-0.22372 0.45927,-0.43636 0.15134,-0.21264 0.2589,-0.4034 0.23908,-0.42388 -0.002,-0.003 -0.009,-0.004 -0.0203,-0.003 z m -6.32913,1.40687 h 0.77059 v 0.4758 0.47578 h -0.77728 c -0.42751,0 -0.79762,-0.0341 -0.82252,-0.0757 -0.0249,-0.0416 -0.022,-0.2556 0.007,-0.47566 0.0519,-0.4001 0.052,-0.40022 0.82265,-0.40022 z m 2.32681,0 c 0.81952,0 0.81949,-1e-5 0.85234,0.4269 0.0226,0.29403 -0.005,0.44214 -0.0904,0.47579 -0.18096,0.0718 -1.44831,0.0596 -1.5201,-0.0146 -0.0338,-0.0349 -0.0614,-0.24887 -0.0614,-0.47565 0,-0.41233 6e-5,-0.41244 0.81956,-0.41244 z m 0.55156,1.55172 c 0.0992,0 0.18205,0.008 0.22443,0.0252 0.10758,0.0426 0.15412,0.17291 0.15412,0.43149 v 0 c 0,0.20374 -0.0104,0.36941 -0.023,0.36789 -0.0127,-0.002 -0.25903,-0.16825 -0.54744,-0.37065 l -0.52431,-0.36801 0.3932,-0.0608 c 0.10814,-0.0168 0.2238,-0.0253 0.32301,-0.0252 z m -2.73068,0.0268 c 0.0833,7.6e-4 0.1353,0.002 0.13124,0.006 -0.008,0.008 -0.2389,0.17035 -0.51274,0.36039 -0.27384,0.19002 -0.53289,0.36782 -0.5756,0.39509 -0.0427,0.0273 -0.0776,-0.12418 -0.0776,-0.33661 0,-0.23904 0.0439,-0.39084 0.11517,-0.39837 0.13906,-0.0146 0.66977,-0.028 0.91957,-0.0269 z m 1.0341,0.36972 c 0.15501,-0.002 0.30767,0.0139 0.4531,0.0476 0.23783,0.0551 0.59315,0.20505 0.78961,0.33319 0.19646,0.12816 0.47175,0.38814 0.61172,0.57778 0.2116,0.28663 0.26359,0.47168 0.30811,1.09774 0.0295,0.41419 0.0323,0.75148 0.006,0.74969 -0.0261,-0.002 -0.15115,-0.0645 -0.27778,-0.13932 -0.12661,-0.0748 -0.4167,-0.13685 -0.64462,-0.13787 -0.22791,-0.001 -0.99335,0.0831 -1.70096,0.1869 -0.70761,0.10384 -1.40202,0.18887 -1.54311,0.18887 -0.25653,0 -0.25659,-5e-5 -0.19911,-0.6899 0.0693,-0.83108 0.32828,-1.35442 0.87625,-1.77081 0.37001,-0.28117 0.85558,-0.4392 1.32062,-0.44385 z"
       id="path510-7"
       inkscape:connector-curvature="0" />
  </g>
  <g
     inkscape:groupmode="layer"
     id="layer2"
     inkscape:label="Livello 2"
     style="display:none"
     transform="translate(-117.58245,-123.6793)" />
</svg>
